<?xml version="1.0" encoding="UTF-8"?>
<svg version="1.1" xmlns="http://www.w3.org/2000/svg" width="334" height="334">
<path d="M0 0 C0.64195312 0.29632324 1.28390625 0.59264648 1.9453125 0.89794922 C20.03571374 9.3188913 35.392872 20.40594701 50 34 C50.71671875 34.65097656 51.4334375 35.30195312 52.171875 35.97265625 C69.27324606 52.16902774 82.39630389 73.79046992 90 96 C90.22236328 96.64243652 90.44472656 97.28487305 90.67382812 97.94677734 C96.64685454 115.39363014 99.18739135 132.61421035 99.18530273 151.02954102 C99.1874785 153.16638454 99.20566959 155.30270107 99.22460938 157.43945312 C99.40964526 202.2607636 79.83238999 241.99392917 49.375 274 C14.98171287 307.5211911 -29.29254426 320.66194688 -76.30859375 320.2109375 C-85.76578889 320.07463701 -94.79907809 319.25614146 -104 317 C-105.24595947 316.70198486 -105.24595947 316.70198486 -106.51708984 316.39794922 C-130.02101901 310.6182945 -152.17385437 300.31160408 -171 285 C-171.55397461 284.55285645 -172.10794922 284.10571289 -172.67871094 283.64501953 C-206.59714829 256.09220079 -228.51768188 216.61723359 -233.79205322 173.10682678 C-235.58157745 154.97614153 -235.34490655 134.71925502 -231 117 C-230.80132324 116.16936035 -230.60264648 115.3387207 -230.39794922 114.48291016 C-219.88730862 71.7396384 -193.22080489 33.99569801 -155.59765625 10.87890625 C-108.94007342 -16.53843624 -49.99024607 -23.36255869 0 0 Z " fill="#ACBCAB" transform="translate(234,14)"/>
<path d="M0 0 C17.4636389 -0.0467703 34.92725819 -0.08201347 52.39094543 -0.10362434 C60.50007219 -0.11392642 68.60915998 -0.12796628 76.71826172 -0.15087891 C83.78812245 -0.17084555 90.85795495 -0.18372421 97.92784309 -0.18817699 C101.66950095 -0.19077883 105.41107805 -0.19687194 109.15270996 -0.21146011 C113.33491563 -0.227633 117.51698189 -0.22797759 121.69921875 -0.22705078 C122.93280624 -0.23424133 124.16639374 -0.24143188 125.43736267 -0.24884033 C143.75712813 -0.20492482 159.86364295 7.10304175 173.1875 19.625 C181.08937472 27.89588337 187.65461681 38.01050289 191 49 C191.53173828 50.73056641 191.53173828 50.73056641 192.07421875 52.49609375 C195.34742586 65.96569425 194.80014986 83.34669688 189 96 C188.525625 97.14082031 188.05125 98.28164062 187.5625 99.45703125 C181.39427182 113.14278752 170.96275243 123.13967567 159 132 C165.61698745 141.2035675 172.26298436 150.38382187 179 159.5 C184.21187121 166.55344743 189.37818984 173.63779878 194.4987793 180.7578125 C196.84428767 184.01909559 199.1945224 187.2750613 201.58984375 190.5 C202.32332031 191.49 203.05679688 192.48 203.8125 193.5 C204.43769531 194.3353125 205.06289063 195.170625 205.70703125 196.03125 C207 198 207 198 207 200 C199.01155646 200.41991818 191.02781796 200.73819228 183.03101826 200.93261909 C179.31574954 201.02602509 175.60809665 201.15219632 171.8972168 201.35791016 C148.04272026 202.64579809 148.04272026 202.64579809 141.43328857 198.32019043 C137.29774554 194.25175391 134.67376621 189.60676258 132.22189331 184.39463806 C130.11735839 180.27021953 127.28369078 176.68386619 124.5 173 C123.42389232 171.51663261 122.3505907 170.03122176 121.28125 168.54296875 C119.01091685 165.39937794 116.73999652 162.25621222 114.46875 159.11328125 C113.88802734 158.30955078 113.30730469 157.50582031 112.70898438 156.67773438 C111.60627308 155.15158194 110.50341901 153.62553265 109.40039062 152.09960938 C106.25284293 147.74301647 103.12015969 143.37625339 100 139 C96.76393315 142.99749435 93.64714059 147.07312034 90.5625 151.1875 C90.04026855 151.88383545 89.51803711 152.5801709 88.97998047 153.29760742 C84.59533073 159.16447502 80.29836131 165.09181727 76.0246582 171.03979492 C71.21116462 177.73214803 66.32100903 184.36644947 61.40478516 190.98364258 C60.8432373 191.74185303 60.28168945 192.50006348 59.703125 193.28125 C59.20458008 193.95220703 58.70603516 194.62316406 58.19238281 195.31445312 C56.93866265 196.99646374 56.93866265 196.99646374 56 199 C35.21 199 14.42 199 -7 199 C-5.62343192 196.24686385 -4.41207758 194.02040311 -2.671875 191.55859375 C-2.20918213 190.9025415 -1.74648926 190.24648926 -1.26977539 189.57055664 C-0.76824951 188.86664795 -0.26672363 188.16273926 0.25 187.4375 C0.77795166 186.69298584 1.30590332 185.94847168 1.84985352 185.18139648 C6.40030756 178.78920288 11.04661499 172.46946652 15.71362305 166.16210938 C21.33459389 158.56357528 26.86930826 150.90464597 32.39111328 143.23388672 C35.09012122 139.48640225 37.79534422 135.74340921 40.5 132 C43.77529972 127.466184 47.04969232 122.93172455 50.3203125 118.39453125 C50.87396484 117.62689453 51.42761719 116.85925781 51.99804688 116.06835938 C53.0232693 114.64683248 54.04806843 113.22500012 55.07226562 111.80273438 C56.08859546 110.39394695 57.13161765 109.00418028 58.19506836 107.63061523 C59.68328331 105.46160183 60.72937987 103.5121231 61.83813477 101.15258789 C64.19520236 96.60891773 66.59045383 92.76643398 71 90 C80.21594294 87.4432917 90.23616378 88.44918958 99.6875 88.8125 C103.59709214 88.90384674 107.50588645 88.97375064 111.41621399 89.02433777 C113.83981249 89.06192026 116.26319057 89.12611553 118.68522644 89.22090149 C125.67435762 89.40239642 130.09432286 88.85602179 136 85 C141.29733142 78.34437848 141.75058301 72.26713575 141 64 C139.47771576 58.91043524 136.03641696 55.86590437 131.78125 52.9453125 C127.20002072 50.51404608 122.43228959 50.93506546 117.3828125 51.06445312 C115.58196572 51.10053164 113.78110198 51.1357705 111.98022461 51.17028809 C111.02679169 51.18955856 110.07335876 51.20882904 109.09103394 51.22868347 C102.96074644 51.33732954 96.82949516 51.36751543 90.69844055 51.40752411 C85.31880489 51.4469946 79.94302497 51.5170429 74.56494141 51.65478516 C69.35256354 51.78671428 64.14530623 51.83433005 58.93133545 51.82615662 C56.9535888 51.83777892 54.97576745 51.87919639 52.99932861 51.95204163 C37.96335439 52.48058385 37.96335439 52.48058385 33.0038662 48.32906342 C29.37926459 44.27060821 26.66497996 39.77983798 24.10445404 34.99757195 C22.65136956 32.36944919 20.91394127 30.0156401 19.08203125 27.640625 C18.53434082 26.90376465 17.98665039 26.1669043 17.42236328 25.40771484 C16.8911084 24.69566895 16.35985352 23.98362305 15.8125 23.25 C0 1.91344418 0 1.91344418 0 0 Z " fill="#000001" transform="translate(67,68)"/>
</svg>
