<?xml version="1.0" standalone="no"?>
<!DOCTYPE svg PUBLIC "-//W3C//DTD SVG 20010904//EN"
 "http://www.w3.org/TR/2001/REC-SVG-20010904/DTD/svg10.dtd">
<svg version="1.0" xmlns="http://www.w3.org/2000/svg"
 width="216.000000pt" height="201.000000pt" viewBox="0 0 216.000000 201.000000"
 preserveAspectRatio="xMidYMid meet">

<g transform="translate(0.000000,201.000000) scale(0.100000,-0.100000)"
fill="#000000" stroke="none">
<path d="M80 2003 c0 -5 82 -119 181 -255 l180 -248 442 0 c278 0 456 -4 480
-11 44 -12 102 -60 124 -103 9 -17 16 -56 17 -86 0 -71 -30 -131 -86 -167
l-41 -28 -293 -5 -293 -5 -391 -537 c-214 -295 -390 -539 -390 -542 0 -3 141
-6 313 -6 l312 0 220 304 c121 167 223 302 226 300 4 -2 105 -139 224 -304
l217 -300 315 0 c249 0 313 3 307 13 -4 6 -113 158 -243 336 l-235 324 34 25
c19 14 71 62 115 107 134 135 198 290 198 485 1 333 -219 612 -544 690 -80 19
-117 20 -736 20 -359 0 -653 -3 -653 -7z"/>
</g>
</svg>
