<?xml version="1.0" standalone="no"?>
<!DOCTYPE svg PUBLIC "-//W3C//DTD SVG 20010904//EN"
 "http://www.w3.org/TR/2001/REC-SVG-20010904/DTD/svg10.dtd">
<svg version="1.0" xmlns="http://www.w3.org/2000/svg"
 width="334.000000pt" height="334.000000pt" viewBox="0 0 334.000000 334.000000"
 preserveAspectRatio="xMidYMid meet">

<g transform="translate(0.000000,334.000000) scale(0.100000,-0.100000)"
fill="#000000" stroke="none">
<path d="M672 2657 c2 -7 82 -122 178 -254 l175 -242 460 -3 c443 -3 461 -4
499 -24 22 -11 54 -37 70 -58 26 -31 31 -48 34 -105 5 -88 -19 -139 -85 -182
l-47 -29 -286 0 -286 0 -392 -539 c-216 -297 -392 -542 -392 -545 0 -4 141 -6
313 -6 l312 1 145 201 c80 110 179 247 221 304 l76 104 218 -301 c120 -165
223 -303 229 -305 6 -2 149 -3 317 -2 l306 3 -243 334 -242 334 56 42 c350
257 393 762 92 1066 -117 118 -249 186 -407 209 -39 5 -340 10 -696 10 -511 0
-628 -2 -625 -13z"/>
<path d="M4 1670 c0 -63 1 -89 3 -57 2 31 2 83 0 115 -2 31 -3 5 -3 -58z"/>
</g>
</svg>
